<svg xmlns="http://www.w3.org/2000/svg" width="95.6" height="217.524" viewBox="0 0 95.6 217.524"><path d="M-81.185,1.3q-10.01,0-15.275-4.55t-5.265-13.13a32.4,32.4,0,0,1,.78-6.76l10.53-49.14q2.08-9.75,7.8-14.885t14.56-5.135q9.88,0,15.08,4.55t5.2,13a31.7,31.7,0,0,1-.78,6.89l-1.56,7.54h-13.78l2.08-9.88a12.325,12.325,0,0,0,.39-2.99q0-6.11-6.89-6.11-5.85,0-7.67,7.67L-86.9-20.8a11.868,11.868,0,0,0-.39,2.86q0,6.24,6.89,6.24,6.5,0,7.93-7.41l2.86-14.17h13.65l-2.99,14.56Q-62.985,1.3-81.185,1.3ZM-57.525,0l34.19-91h19.76L-8.125,0h-14.56l1.3-17.81H-37.5L-43.745,0Zm40.17-74.49-15.73,44.33H-20.6ZM14.5,0H-.065l19.37-91h20.93q8.58,0,13.065,3.965T57.785-75.4a36.152,36.152,0,0,1-.78,7.02l-.91,4.42q-1.69,8.32-4.875,12.675A15.1,15.1,0,0,1,42.575-45.5v.13q6.63,2.21,6.63,11.31a29.962,29.962,0,0,1-.91,7.54l-3.38,15.99a49.46,49.46,0,0,0-1.3,8.19q0,.26.26,2.34H29.705q-.26-3.12-.26-3.38a43.24,43.24,0,0,1,1.17-8.32l3.51-16.64a25.515,25.515,0,0,0,.78-5.46q0-2.99-1.495-4.095t-5.4-1.1h-5.2Zm16.64-78-5.59,26h4.29q8.84,0,11.18-10.14l1.56-7.02a16.09,16.09,0,0,0,.52-4.16q0-4.68-5.46-4.68Zm48.1,78H64.675l16.51-78H66.235L69.1-91h44.46L110.7-78H95.745Z" transform="translate(93.3 114.799) rotate(-90)" fill="none" stroke="#121211" stroke-width="2" opacity="0.098"/></svg>