<svg xmlns="http://www.w3.org/2000/svg" width="95.6" height="318.16" viewBox="0 0 95.6 318.16"><path d="M-133.835,1.3q-9.88,0-15.47-4.745T-154.9-17.03a30.614,30.614,0,0,1,.78-6.63l10.27-48.1q2.08-10.01,8-15.275t14.885-5.265q9.88,0,15.47,4.745t5.59,13.585a31.149,31.149,0,0,1-.78,6.76l-10.27,48.1Q-115.375,1.3-133.835,1.3Zm.78-13q5.85,0,7.67-8.06l10.53-49.79a14.448,14.448,0,0,0,.39-3.25q0-6.5-7.15-6.5-5.98,0-7.8,8.19l-10.53,49.79a15.246,15.246,0,0,0-.39,3.12Q-140.335-11.7-133.055-11.7ZM-89.765,0h-14.56l19.37-91h20.93q8.58,0,13.065,3.965T-46.475-75.4a36.152,36.152,0,0,1-.78,7.02l-.91,4.42q-1.69,8.32-4.875,12.675A15.1,15.1,0,0,1-61.685-45.5v.13q6.63,2.21,6.63,11.31a29.962,29.962,0,0,1-.91,7.54l-3.38,15.99a49.46,49.46,0,0,0-1.3,8.19q0,.26.26,2.34h-14.17q-.26-3.12-.26-3.38a43.24,43.24,0,0,1,1.17-8.32l3.51-16.64a25.515,25.515,0,0,0,.78-5.46q0-2.99-1.495-4.095t-5.4-1.1h-5.2Zm16.64-78-5.59,26h4.29q8.84,0,11.18-10.14l1.56-7.02a16.09,16.09,0,0,0,.52-4.16q0-4.68-5.46-4.68Zm46.15,78h-23.4l19.37-91h21.06q8.97,0,13.65,4.225T8.385-74.75a33.729,33.729,0,0,1-.78,6.76l-9.75,46.02q-2.34,11.31-8.32,16.64T-26.975,0Zm7.8-78-13.78,65h6.37q7.54,0,9.75-9.36L-6.7-69.68a19.6,19.6,0,0,0,.39-3.51q0-4.81-5.46-4.81ZM43.095,0h-39l19.37-91h39L59.6-78H35.295l-5.07,24.05h19.24l-2.73,13H27.495L21.515-13h24.31Zm23.53,0H52.065l19.37-91h20.93q8.58,0,13.065,3.965T109.915-75.4a36.152,36.152,0,0,1-.78,7.02l-.91,4.42q-1.69,8.32-4.875,12.675A15.1,15.1,0,0,1,94.7-45.5v.13q6.63,2.21,6.63,11.31a29.962,29.962,0,0,1-.91,7.54l-3.38,15.99a49.46,49.46,0,0,0-1.3,8.19q0,.26.26,2.34H81.835q-.26-3.12-.26-3.38a43.24,43.24,0,0,1,1.17-8.32l3.51-16.64a25.515,25.515,0,0,0,.78-5.46q0-2.99-1.495-4.095t-5.4-1.1h-5.2Zm16.64-78-5.59,26h4.29q8.84,0,11.18-10.14l1.56-7.02a16.09,16.09,0,0,0,.52-4.16q0-4.68-5.46-4.68Zm43.68,79.3q-19.63,0-19.63-16.9a34.272,34.272,0,0,1,.91-8.06l.65-3.12h13.65l-1.04,5.59a18.075,18.075,0,0,0-.39,3.51q0,5.98,6.76,5.98,8.84,0,8.84-12.74,0-8.19-7.93-17.29-10.79-12.22-10.79-24.44,0-11.57,6.37-18.72,6.37-7.41,17.42-7.41,19.5,0,19.5,16.77a44.442,44.442,0,0,1-1.04,8.19l-.39,1.69h-13.65l.78-3.9a22.765,22.765,0,0,0,.39-3.9q0-5.85-6.5-5.85a7.074,7.074,0,0,0-6.305,3.25,15.346,15.346,0,0,0-2.145,8.58q0,7.8,7.93,16.9,10.79,12.74,10.79,24.96,0,11.83-6.5,19.5Q138.125,1.3,126.945,1.3Z" transform="translate(93.3 162.265) rotate(-90)" fill="#fff" stroke="#121211" stroke-width="2" opacity="0.1"/></svg>