<svg xmlns="http://www.w3.org/2000/svg" width="95.6" height="574.634" viewBox="0 0 95.6 574.634"><path d="M-259.22,1.3q-9.88,0-15.47-4.745t-5.59-13.585a30.615,30.615,0,0,1,.78-6.63l10.27-48.1q2.08-10.01,7.995-15.275T-246.35-92.3q9.88,0,15.47,4.745t5.59,13.585a31.148,31.148,0,0,1-.78,6.76l-10.27,48.1Q-240.76,1.3-259.22,1.3Zm.78-13q5.85,0,7.67-8.06l10.53-49.79a14.448,14.448,0,0,0,.39-3.25q0-6.5-7.15-6.5-5.98,0-7.8,8.19l-10.53,49.79a15.247,15.247,0,0,0-.39,3.12Q-265.72-11.7-258.44-11.7ZM-215.15,0h-14.56l19.37-91h20.93q8.58,0,13.065,3.965T-171.86-75.4a36.153,36.153,0,0,1-.78,7.02l-.91,4.42q-1.69,8.32-4.875,12.675A15.1,15.1,0,0,1-187.07-45.5v.13q6.63,2.21,6.63,11.31a29.962,29.962,0,0,1-.91,7.54l-3.38,15.99a49.461,49.461,0,0,0-1.3,8.19q0,.26.26,2.34h-14.17q-.26-3.12-.26-3.38a43.24,43.24,0,0,1,1.17-8.32l3.51-16.64a25.514,25.514,0,0,0,.78-5.46q0-2.99-1.495-4.095t-5.4-1.1h-5.2Zm16.64-78-5.59,26h4.29q8.84,0,11.18-10.14l1.56-7.02a16.09,16.09,0,0,0,.52-4.16q0-4.68-5.46-4.68Zm46.15,78h-23.4l19.37-91h21.06q8.97,0,13.65,4.225T-117-74.75a33.729,33.729,0,0,1-.78,6.76l-9.75,46.02q-2.34,11.31-8.32,16.64T-152.36,0Zm7.8-78-13.78,65h6.37q7.54,0,9.75-9.36l10.14-47.32a19.6,19.6,0,0,0,.39-3.51q0-4.81-5.46-4.81ZM-82.29,0h-39l19.37-91h39l-2.86,13H-90.09l-5.07,24.05h19.24l-2.73,13H-97.89L-103.87-13h24.31Zm23.53,0H-73.32l19.37-91h20.93q8.58,0,13.065,3.965T-15.47-75.4a36.152,36.152,0,0,1-.78,7.02l-.91,4.42q-1.69,8.32-4.875,12.675A15.1,15.1,0,0,1-30.68-45.5v.13q6.63,2.21,6.63,11.31a29.962,29.962,0,0,1-.91,7.54l-3.38,15.99a49.46,49.46,0,0,0-1.3,8.19q0,.26.26,2.34H-43.55q-.26-3.12-.26-3.38a43.24,43.24,0,0,1,1.17-8.32l3.51-16.64a25.515,25.515,0,0,0,.78-5.46q0-2.99-1.495-4.095t-5.4-1.1h-5.2Zm16.64-78-5.59,26h4.29q8.84,0,11.18-10.14l1.56-7.02a16.09,16.09,0,0,0,.52-4.16q0-4.68-5.46-4.68ZM28.47,0H13.91L30.42-78H15.47l2.86-13H62.79L59.93-78H44.98Zm37.7,0H51.61L70.98-91H85.54ZM101.4,1.3q-10.01,0-15.275-4.55T80.86-16.38a32.4,32.4,0,0,1,.78-6.76L92.17-72.28q2.08-9.75,7.8-14.885T114.53-92.3q9.88,0,15.08,4.55t5.2,13a31.7,31.7,0,0,1-.78,6.89l-1.56,7.54H118.69l2.08-9.88a12.326,12.326,0,0,0,.39-2.99q0-6.11-6.89-6.11-5.85,0-7.67,7.67L95.68-20.8a11.868,11.868,0,0,0-.39,2.86q0,6.24,6.89,6.24,6.5,0,7.93-7.41l2.86-14.17h13.65l-2.99,14.56Q119.6,1.3,101.4,1.3ZM179.66-91h15.6L170.69-56.81,175.89,0H161.46l-3.51-39.13-8.71,12.09L143.52,0H128.96l19.37-91h14.56l-7.93,37.31ZM223.08,0h-39l19.37-91h39l-2.86,13H215.28l-5.07,24.05h19.24l-2.73,13H207.48L201.5-13h24.31Zm34.71,0H243.23l16.51-78H244.79l2.86-13h44.46l-2.86,13H274.3Z" transform="translate(93.3 293.354) rotate(-90)" fill="#fff" stroke="#121211" stroke-width="2" opacity="0.1"/></svg>