<svg xmlns="http://www.w3.org/2000/svg" width="750" height="28.14" viewBox="0 0 750 28.14"><g transform="translate(0 -105.15)"><g transform="translate(-1512 1868)"><path d="M14.105,0H10.08L6.86-10.78,5.285-7.7V0H1.435V-24.5h3.85v10.535L10.115-24.5h3.92l-4.585,9Zm7.14.035A5.52,5.52,0,0,1,20.16-.07v-3.4a2.446,2.446,0,0,0,.595.07,2,2,0,0,0,1.628-.578A3.452,3.452,0,0,0,22.89-6.02l.6-18.48h10.85V0h-3.85V-21h-3.36L26.7-6.23a7.6,7.6,0,0,1-1.33,4.777A5.137,5.137,0,0,1,21.245.035ZM54.6,0H50.75l-.665-4.8H45.64L44.975,0H41.4L45.4-24.5H50.61ZM47.845-20.475,46.13-8.12H49.6ZM61.32-5.67V-18.83a6.268,6.268,0,0,1,1.47-4.445,5.464,5.464,0,0,1,4.2-1.575,5.464,5.464,0,0,1,4.2,1.575,6.268,6.268,0,0,1,1.47,4.445v2.59H69.02v-2.835q0-2.275-1.925-2.275T65.17-19.075V-5.39q0,2.24,1.925,2.24T69.02-5.39V-8.96h3.64v3.29a6.268,6.268,0,0,1-1.47,4.445A5.464,5.464,0,0,1,66.99.35a5.464,5.464,0,0,1-4.2-1.575A6.268,6.268,0,0,1,61.32-5.67Zm18.655,0V-18.83a6.268,6.268,0,0,1,1.47-4.445,5.464,5.464,0,0,1,4.2-1.575,5.464,5.464,0,0,1,4.2,1.575,6.268,6.268,0,0,1,1.47,4.445v2.59h-3.64v-2.835q0-2.275-1.925-2.275t-1.925,2.275V-5.39q0,2.24,1.925,2.24t1.925-2.24V-8.96h3.64v3.29a6.268,6.268,0,0,1-1.47,4.445A5.464,5.464,0,0,1,85.645.35a5.464,5.464,0,0,1-4.2-1.575A6.268,6.268,0,0,1,79.975-5.67ZM102.27-8.68l4.76-15.82h3.885V0h-3.43V-15.89L102.725,0H98.84V-24.5h3.43ZM131.705,0H127.68l-3.22-10.78L122.885-7.7V0h-3.85V-24.5h3.85v10.535l4.83-10.535h3.92l-4.585,9ZM150.92,0h-3.85L146.4-4.8H141.96L141.295,0h-3.57l3.99-24.5h5.215Zm-6.755-20.475L142.45-8.12h3.465Z" transform="translate(1530.5 -1738)" fill="#d9000d"/><line x2="22" transform="translate(1512 -1739.75)" fill="none" stroke="#d9000d" stroke-width="3.5"/><line x2="207" transform="translate(1680 -1739.75)" fill="none" stroke="#d9000d" stroke-width="3.5"/></g><g transform="translate(-1137 2010)"><line x2="20" transform="translate(1512 -1881.75)" fill="none" stroke="#d9000d" stroke-width="3.5"/><path d="M1.5.035A5.52,5.52,0,0,1,.42-.07v-3.4a2.446,2.446,0,0,0,.595.07,2,2,0,0,0,1.628-.578A3.452,3.452,0,0,0,3.15-6.02l.6-18.48H14.6V0h-3.85V-21H7.385L6.965-6.23a7.6,7.6,0,0,1-1.33,4.777A5.137,5.137,0,0,1,1.5.035ZM33.215,0h-10.5V-24.5h10.5V-21h-6.65v6.475H31.85v3.5H26.565V-3.5h6.65ZM44.38,0H40.53V-24.5h9.835V-21H44.38ZM67.97,0H57.47V-24.5h10.5V-21H61.32v6.475h5.285v3.5H61.32V-3.5h6.65ZM79.135,0h-3.85V-24.5h3.85v9.975h4.13V-24.5h3.85V0h-3.85V-11.025h-4.13ZM108.4-24.5v21h1.89V3.29h-3.85V0h-8.4V3.29h-3.85V-3.5H96.25a4.473,4.473,0,0,0,.665-2.52l.63-18.48Zm-8.47,21h4.62V-21h-3.36L100.8-6.23A4.814,4.814,0,0,1,99.925-3.5Zm23.1,3.5h-5.67V-24.5h3.85v9.275h1.82q5.74,0,5.74,6.055v3.115Q128.765,0,123.025,0Zm11.69,0h-3.85V-24.5h3.85Zm-13.51-11.725V-3.5h1.82a1.77,1.77,0,0,0,1.435-.543,2.745,2.745,0,0,0,.455-1.768V-9.415a2.745,2.745,0,0,0-.455-1.767,1.77,1.77,0,0,0-1.435-.542Z" transform="translate(1530.5 -1880)" fill="#d9000d"/><line x2="223" transform="translate(1664 -1881.75)" fill="none" stroke="#d9000d" stroke-width="3.5"/></g></g></svg>