<svg xmlns="http://www.w3.org/2000/svg" width="189.923" height="30.3" viewBox="0 0 189.923 30.3"><g transform="translate(-19.222 -54.85)"><path d="M8.24,0H-.16L5.8-28h6.84a7.372,7.372,0,0,1,4.88,1.42A4.927,4.927,0,0,1,19.2-22.6a13.617,13.617,0,0,1-.2,1.88l-.16.8a7.59,7.59,0,0,1-1.5,3.52,6.9,6.9,0,0,1-3.18,1.84v.08Q17-13.56,17-9.88a8.734,8.734,0,0,1-.24,1.96l-.28,1.36a8.448,8.448,0,0,1-2.64,5.08A8.94,8.94,0,0,1,8.24,0ZM9.6-23.96,8.04-16.52H9.92a4.726,4.726,0,0,0,2.8-.72,3.792,3.792,0,0,0,1.36-2.4l.24-1.04a5,5,0,0,0,.16-1.08q0-2.2-2.64-2.2ZM7.16-12.48,5.36-4.04H8.28a3.761,3.761,0,0,0,2.5-.68,4.343,4.343,0,0,0,1.14-2.44l.32-1.52a12.115,12.115,0,0,0,.2-1.64,1.981,1.981,0,0,0-.64-1.66,3.574,3.574,0,0,0-2.16-.5ZM44.72-28h4.92L41.2-17.36,43.68,0H39.12l-1.8-12.8-3.4,4.08L32.08,0H27.52l5.96-28h4.56L35.48-16ZM54.92.4a7.805,7.805,0,0,1-5.2-1.62,5.569,5.569,0,0,1-1.92-4.5,10.133,10.133,0,0,1,.24-2.12l3-13.88q1.44-6.68,8.04-6.68a7.856,7.856,0,0,1,5.18,1.58,5.524,5.524,0,0,1,1.9,4.5,10.3,10.3,0,0,1-.24,2.16L62.96-6.24Q61.52.4,54.92.4Zm.24-4.04q2.6,0,3.2-2.92L61.4-20.84a3.181,3.181,0,0,0,.16-1.08q0-2.44-2.76-2.44-2.6,0-3.2,2.92L52.56-7.16a7.22,7.22,0,0,0-.12,1.08Q52.44-3.64,55.16-3.64ZM71,0H66.32l5.96-28H79q3.68,0,5.34,2.06t.9,5.78l-.44,1.92a9.016,9.016,0,0,1-2.66,5.3,8.541,8.541,0,0,1-5.58,1.58H73.4Zm5.08-23.96-1.84,8.6h2.8a2.913,2.913,0,0,0,2.14-.7,4.826,4.826,0,0,0,1.06-2.42l.44-2.16a3.048,3.048,0,0,0-.32-2.48,2.5,2.5,0,0,0-2.12-.84ZM92.52.4a8.085,8.085,0,0,1-5.16-1.52,5.19,5.19,0,0,1-1.92-4.32,9.052,9.052,0,0,1,.28-2.28L86-8.88h4.32l-.4,1.68a5.332,5.332,0,0,0-.12,1.12q0,2.44,2.68,2.44a2.983,2.983,0,0,0,2.14-.74A4.831,4.831,0,0,0,95.8-6.8l.4-1.6a10.52,10.52,0,0,0,.2-1.56q0-2.6-2.84-2.6H91.8l.88-4.04h1.88a3.552,3.552,0,0,0,3.88-2.96L98.76-21a3.045,3.045,0,0,0,.16-1.04,2.126,2.126,0,0,0-.72-1.7,2.9,2.9,0,0,0-1.96-.62,2.768,2.768,0,0,0-3,2.68l-.32,1.72h-4.4l.36-1.84q1.48-6.6,7.72-6.6a7.812,7.812,0,0,1,5.04,1.54,5.159,5.159,0,0,1,1.92,4.26,9.055,9.055,0,0,1-.24,2.04l-.24,1.16a6.3,6.3,0,0,1-1.64,3.08,5.7,5.7,0,0,1-3.08,1.64v.08a4.511,4.511,0,0,1,2.68,4.36,11.9,11.9,0,0,1-.32,2.4l-.36,1.68Q98.96.4,92.52.4Zm16.96-9.68L119.84-28h5.04L118.92,0H114.8l3.88-18.48L108.44,0h-5l5.96-28h4.12ZM128.8,0h-4.68l5.96-28h4.68l-2.48,11.56h5.84L140.6-28h4.64L139.28,0H134.6l2.64-12.4h-5.8Zm25.72-12.88L161.36-28h4.6L154.88-4.56a9.321,9.321,0,0,1-2.92,3.84A7.6,7.6,0,0,1,147.6.4a7.9,7.9,0,0,1-3.24-.64l.76-3.72a4.919,4.919,0,0,0,1.96.32,3.587,3.587,0,0,0,3.4-1.88l.4-.72L149.28-28h4.52Z" transform="translate(42 84)" fill="none" stroke="#121211" stroke-width="1.5"/><path d="M8.36.75h4.42L5.1,14.75l2.055,14h-4.3L.78,14.11Z" transform="translate(19.22 55.25)" fill="none" stroke="#121211" stroke-width="1.5"/></g></svg>