<svg xmlns="http://www.w3.org/2000/svg" width="25.779" height="29.001" viewBox="0 0 25.779 29.001"><g transform="translate(-233.278 -155.999)"><g transform="translate(109.105 138.159)" fill="none" stroke-miterlimit="10" opacity="0.997"><path d="M124.173,17.84l3.222,29h19.334l3.222-29Z" stroke="none"/><path d="M 125.8486328125 19.340087890625 L 128.7376556396484 45.34130859375 L 145.3866729736328 45.34130859375 L 148.2756805419922 19.340087890625 L 125.8486328125 19.340087890625 M 124.1727294921875 17.840087890625 L 149.9515838623047 17.840087890625 L 146.729248046875 46.84130859375 L 127.3950958251953 46.84130859375 L 124.1727294921875 17.840087890625 Z" stroke="none" fill="#121211"/></g><path d="M-7.161-2.492V-7.308a2.648,2.648,0,0,1,.679-1.946A2.627,2.627,0,0,1-4.529-9.94a2.608,2.608,0,0,1,1.939.686,2.648,2.648,0,0,1,.679,1.946v4.816A2.648,2.648,0,0,1-2.59-.546,2.608,2.608,0,0,1-4.529.14,2.632,2.632,0,0,1-6.475-.546,2.632,2.632,0,0,1-7.161-2.492Zm2.632,1.218q1.022,0,1.022-1.134V-7.392q0-1.134-1.022-1.134T-5.565-7.392v4.984Q-5.565-1.274-4.529-1.274ZM1,0H-.6V-1.68H1ZM7.189,0H2.177V-1.092A3.911,3.911,0,0,1,2.6-2.94a7.256,7.256,0,0,1,1.47-1.75A8.54,8.54,0,0,0,5.383-6.1a2.306,2.306,0,0,0,.364-1.26q0-1.162-1.008-1.162-1.05,0-1.05,1.162v.854h-1.5v-.812a2.666,2.666,0,0,1,.665-1.925A2.525,2.525,0,0,1,4.767-9.94a2.571,2.571,0,0,1,1.911.672,2.532,2.532,0,0,1,.665,1.862,3.329,3.329,0,0,1-.5,1.764A9.469,9.469,0,0,1,5.1-3.71,6.125,6.125,0,0,0,4.046-2.548a1.85,1.85,0,0,0-.287.994v.14h3.43Z" transform="translate(246 176)" fill="#121211" opacity="0.997"/></g></svg>