<svg xmlns="http://www.w3.org/2000/svg" width="27.201" height="34.001" viewBox="0 0 27.201 34.001"><g transform="translate(-282.4 -151)"><g transform="translate(219.056 141.5)" fill="none" stroke-miterlimit="10" opacity="0.997"><path d="M90.544,9.528,87.522,43.5H66.366l-3.022-34Z" stroke="none"/><path d="M 64.98291015625 11.00177383422852 L 67.7384033203125 42.00117492675781 L 86.14955902099609 42.00117492675781 L 88.9051513671875 11.02624130249023 L 64.98291015625 11.00177383422852 M 63.343505859375 9.500095367431641 L 90.54437255859375 9.527915954589844 L 87.52204132080078 43.50117492675781 L 66.36582183837891 43.50117492675781 L 63.343505859375 9.500095367431641 Z" stroke="none" fill="#121211"/></g><path d="M-7.175-2.492V-7.308A2.648,2.648,0,0,1-6.5-9.254,2.627,2.627,0,0,1-4.543-9.94,2.608,2.608,0,0,1-2.6-9.254a2.648,2.648,0,0,1,.679,1.946v4.816A2.648,2.648,0,0,1-2.6-.546,2.608,2.608,0,0,1-4.543.14,2.632,2.632,0,0,1-6.489-.546,2.632,2.632,0,0,1-7.175-2.492Zm2.632,1.218q1.022,0,1.022-1.134V-7.392q0-1.134-1.022-1.134T-5.579-7.392v4.984Q-5.579-1.274-4.543-1.274ZM.987,0h-1.6V-1.68h1.6Zm3.7.14A2.582,2.582,0,0,1,2.765-.525,2.623,2.623,0,0,1,2.107-2.45v-.658h1.5v.686q0,1.148,1.036,1.148a.987.987,0,0,0,.791-.287,1.453,1.453,0,0,0,.245-.945v-.532A1.532,1.532,0,0,0,5.39-4.081,1.227,1.227,0,0,0,4.445-4.4h-.6V-5.81h.644Q5.635-5.81,5.635-7v-.434q0-1.092-.994-1.092t-.98,1.05v.49h-1.5V-7.35a2.658,2.658,0,0,1,.644-1.925A2.513,2.513,0,0,1,4.7-9.94,2.546,2.546,0,0,1,6.566-9.3a2.5,2.5,0,0,1,.651,1.862v.266A1.872,1.872,0,0,1,5.971-5.194v.014A2.009,2.009,0,0,1,7.259-3.024v.56A2.289,2.289,0,0,1,4.683.14Z" transform="translate(296 176)" fill="#121211" opacity="0.997"/></g></svg>