<svg xmlns="http://www.w3.org/2000/svg" width="33.285" height="29.564" viewBox="0 0 33.285 29.564"><g transform="translate(-1047 -392)"><path d="M320.293,379.289l-1.067,4.281h4.548l1.067-4.281Z" transform="translate(749.053 37.994)" fill="#fff"/><path d="M124.357,379.289l-1.067,4.281h4.548l1.067-4.281Z" transform="translate(931.928 37.994)" fill="#fff"/><path d="M9.838,3.993,9.265,0C7.145.008,2.312,0,.192,0H0L.457,4.26l5.094,0L7.707,23.575H28.093L33.285,3.993Zm14.8,11.138H20.015l-1.08,4.722H15.846l1.08-4.722H12.308l.615-2.689h4.619l1.064-4.653h3.089L20.63,12.443h4.619Z" transform="translate(1047 392)" fill="#fff"/></g></svg>