<svg xmlns="http://www.w3.org/2000/svg" width="54.783" height="73.043" viewBox="0 0 54.783 73.043"><g transform="translate(-1 -0.84)" fill="none" stroke-miterlimit="10"><path d="M55.783.84,49.7,73.884H7.087L1,.84Z" stroke="none"/><path d="M 3.173595428466797 2.840087890625 L 8.927219390869141 71.88356781005859 L 47.85538482666016 71.88356781005859 L 53.6090087890625 2.840087890625 L 3.173595428466797 2.840087890625 M 1.000003814697266 0.840087890625 L 55.78260040283203 0.840087890625 L 49.69564437866211 73.88356781005859 L 7.086959838867188 73.88356781005859 L 1.000003814697266 0.840087890625 Z" stroke="none" fill="#fff"/></g><path d="M-9.568-14.014c0-1.3.572-1.794,1.482-1.794s1.482.494,1.482,1.794v9.828c0,1.3-.572,1.794-1.482,1.794s-1.482-.494-1.482-1.794Zm-2.86,9.646c0,2.912,1.534,4.576,4.342,4.576s4.342-1.664,4.342-4.576v-9.464c0-2.912-1.534-4.576-4.342-4.576s-4.342,1.664-4.342,4.576Zm11.05,1.612V0H1.378V-2.756ZM3.3-3.3H8.814V0h2.808V-3.3h1.352V-5.9H11.622V-18.2H8.5L3.3-5.9ZM5.928-5.9,8.814-12.74V-5.9Z" transform="translate(27.609 45.585)" fill="#fff"/><path d="M3.64,0H1.592V-4.88q0-1.232-1.152-1.232a1.671,1.671,0,0,0-.92.272,2.487,2.487,0,0,0-.68.624V0H-3.208V-4.88q0-1.232-1.152-1.232a1.684,1.684,0,0,0-.912.272,2.343,2.343,0,0,0-.688.64V0H-7.992V-7.728H-5.96V-6.72a2.881,2.881,0,0,1,1.008-.808,3.133,3.133,0,0,1,1.52-.392A2.011,2.011,0,0,1-1.288-6.512,3.07,3.07,0,0,1-.192-7.5a3.093,3.093,0,0,1,1.56-.416,2.291,2.291,0,0,1,1.68.584A2.36,2.36,0,0,1,3.64-5.584ZM7.992,0H5.96V-10.672H7.992Z" transform="translate(27.261 62.931)" fill="#fff"/></svg>