<svg xmlns="http://www.w3.org/2000/svg" width="48.696" height="54.783" viewBox="0 0 48.696 54.783"><g transform="translate(0 0)"><g transform="translate(-124.173 -17.84)" fill="#fff" stroke-miterlimit="10"><path d="M 165.8863677978516 71.62270355224609 L 131.1547088623047 71.62270355224609 L 125.2899856567383 18.84009170532227 L 171.7511291503906 18.84009170532227 L 165.8863677978516 71.62270355224609 Z" stroke="none"/><path d="M 126.4072570800781 19.840087890625 L 132.0497589111328 70.62269592285156 L 164.9913177490234 70.62269592285156 L 170.6338500976563 19.840087890625 L 126.4072570800781 19.840087890625 M 124.1727294921875 17.840087890625 L 172.8683776855469 17.840087890625 L 166.7814025878906 72.62269592285156 L 130.2596740722656 72.62269592285156 L 124.1727294921875 17.840087890625 Z" stroke="none" fill="#fff"/></g><path d="M-9.568-14.014c0-1.3.572-1.794,1.482-1.794s1.482.494,1.482,1.794v9.828c0,1.3-.572,1.794-1.482,1.794s-1.482-.494-1.482-1.794Zm-2.86,9.646c0,2.912,1.534,4.576,4.342,4.576s4.342-1.664,4.342-4.576v-9.464c0-2.912-1.534-4.576-4.342-4.576s-4.342,1.664-4.342,4.576Zm11.05,1.612V0H1.378V-2.756ZM9.646-13.728c0,5.252-5.668,6.136-5.668,11.492V0h8.268V-2.6H6.838a1.968,1.968,0,0,1-.026-.39c0-2.99,5.694-5.122,5.694-10.842,0-2.912-1.456-4.576-4.264-4.576s-4.264,1.664-4.264,4.576v1.768h2.7v-1.95c0-1.3.572-1.794,1.482-1.794S9.646-15.366,9.646-13.728Z" transform="translate(23.746 26.282)" fill="#31239f"/><path d="M13.43,0H11.254V-5.185q0-1.309-1.224-1.309a1.776,1.776,0,0,0-.977.289,2.642,2.642,0,0,0-.723.663V0H6.154V-5.185q0-1.309-1.224-1.309a1.79,1.79,0,0,0-.969.289,2.489,2.489,0,0,0-.731.68V0H1.071V-8.211H3.23V-7.14A3.061,3.061,0,0,1,4.3-8a3.329,3.329,0,0,1,1.615-.417,2.137,2.137,0,0,1,2.278,1.5A3.262,3.262,0,0,1,9.359-7.973a3.287,3.287,0,0,1,1.657-.442,2.434,2.434,0,0,1,1.785.621,2.507,2.507,0,0,1,.629,1.862Zm4.624,0H15.9V-11.339h2.159Z" transform="translate(13.804 45.67)" fill="#31239f"/></g></svg>