<svg xmlns="http://www.w3.org/2000/svg" width="29.25" height="39" viewBox="0 0 29.25 39"><g transform="translate(-330.625 -146)"><g transform="translate(329.625 145.16)" fill="none" stroke-miterlimit="10" opacity="0.997"><path d="M30.25.84l-3.25,39H4.25L1,.84Z" stroke="none"/><path d="M 2.630203247070313 2.340091705322266 L 5.630243301391602 38.34057235717773 L 25.6201229095459 38.34057235717773 L 28.62016296386719 2.340091705322266 L 2.630203247070313 2.340091705322266 M 1.000003814697266 0.8400917053222656 L 30.25036239624023 0.8400917053222656 L 27.00032424926758 39.84057235717773 L 4.250043869018555 39.84057235717773 L 1.000003814697266 0.8400917053222656 Z" stroke="none" fill="#121211"/></g><path d="M-7.371-2.492V-7.308a2.648,2.648,0,0,1,.679-1.946A2.627,2.627,0,0,1-4.739-9.94,2.608,2.608,0,0,1-2.8-9.254a2.648,2.648,0,0,1,.679,1.946v4.816A2.648,2.648,0,0,1-2.8-.546,2.608,2.608,0,0,1-4.739.14,2.632,2.632,0,0,1-6.685-.546,2.632,2.632,0,0,1-7.371-2.492Zm2.632,1.218q1.022,0,1.022-1.134V-7.392q0-1.134-1.022-1.134T-5.775-7.392v4.984Q-5.775-1.274-4.739-1.274ZM.791,0h-1.6V-1.68h1.6Zm6.02,0h-1.6V-1.778H1.8v-1.4L5.075-9.8H6.811v6.608h.84v1.414h-.84Zm-1.6-7.266L3.255-3.192h1.96Z" transform="translate(345 176)" fill="#121211" opacity="0.997"/></g></svg>