<svg xmlns="http://www.w3.org/2000/svg" width="54.783" height="64.522" viewBox="0 0 54.783 64.522"><g transform="translate(0 0)"><g transform="translate(-63.344 -9.5)" fill="#fff" stroke-miterlimit="10"><path d="M 111.1291275024414 73.02171325683594 L 70.34056091308594 73.02171325683594 L 64.4423828125 10.50115585327148 L 117.0273513793945 10.55182838439941 L 111.1291275024414 73.02171325683594 Z" stroke="none"/><path d="M 65.541259765625 11.50221252441406 L 71.25065612792969 72.02170562744141 L 110.2190856933594 72.02170562744141 L 115.9285736083984 11.55076599121094 L 65.541259765625 11.50221252441406 M 63.34349822998047 9.500091552734375 L 118.1261138916016 9.552879333496094 L 112.0391464233398 74.02170562744141 L 69.43045806884766 74.02170562744141 L 63.34349822998047 9.500091552734375 Z" stroke="none" fill="#fff"/></g><path d="M-9.568-14.014c0-1.3.572-1.794,1.482-1.794s1.482.494,1.482,1.794v9.828c0,1.3-.572,1.794-1.482,1.794s-1.482-.494-1.482-1.794Zm-2.86,9.646c0,2.912,1.534,4.576,4.342,4.576s4.342-1.664,4.342-4.576v-9.464c0-2.912-1.534-4.576-4.342-4.576s-4.342,1.664-4.342,4.576Zm11.05,1.612V0H1.378V-2.756ZM9.49-12.714c0,1.456-.65,1.924-1.716,1.924H6.656v2.6h.962c1.3,0,1.872.624,1.872,2.314v1.43c0,1.612-.572,2.054-1.482,2.054S6.526-2.886,6.526-4.186v-1.69h-2.7v1.508C3.822-1.456,5.278.208,8.086.208S12.35-1.456,12.35-4.368V-5.8c0-1.846-.572-3.2-2-3.822,1.378-.572,2-1.794,2-3.744v-.468c0-2.912-1.456-4.576-4.264-4.576s-4.264,1.664-4.264,4.576v.988h2.7v-1.17c0-1.3.572-1.794,1.482-1.794s1.482.442,1.482,2.08Z" transform="translate(27.609 36.435)" fill="#31239f"/><path d="M3.64,0H1.592V-4.88q0-1.232-1.152-1.232a1.671,1.671,0,0,0-.92.272,2.487,2.487,0,0,0-.68.624V0H-3.208V-4.88q0-1.232-1.152-1.232a1.684,1.684,0,0,0-.912.272,2.343,2.343,0,0,0-.688.64V0H-7.992V-7.728H-5.96V-6.72a2.881,2.881,0,0,1,1.008-.808,3.133,3.133,0,0,1,1.52-.392A2.011,2.011,0,0,1-1.288-6.512,3.07,3.07,0,0,1-.192-7.5a3.093,3.093,0,0,1,1.56-.416,2.291,2.291,0,0,1,1.68.584A2.36,2.36,0,0,1,3.64-5.584ZM7.992,0H5.96V-10.672H7.992Z" transform="translate(27.261 54.823)" fill="#31239f"/></g></svg>