<svg xmlns="http://www.w3.org/2000/svg" xmlns:xlink="http://www.w3.org/1999/xlink" width="193" height="86.144" viewBox="0 0 193 86.144"><defs><filter id="a" x="0" y="0" width="130.297" height="86.144" filterUnits="userSpaceOnUse"><feOffset input="SourceAlpha"/><feGaussianBlur stdDeviation="10" result="b"/><feFlood flood-color="#fff"/><feComposite operator="in" in2="b"/><feComposite in="SourceGraphic"/></filter><filter id="c" x="68.744" y="4.726" width="124.255" height="81.418" filterUnits="userSpaceOnUse"><feOffset input="SourceAlpha"/><feGaussianBlur stdDeviation="10" result="d"/><feFlood flood-color="#fff"/><feComposite operator="in" in2="d"/><feComposite in="SourceGraphic"/></filter></defs><g transform="translate(15 -145)"><g transform="matrix(1, 0, 0, 1, -15, 145)" filter="url(#a)"><path d="M59.545,12.364a57.916,57.916,0,0,0,9.083-4.458c2.432-1.418,1.789-2.779.691-3.021a7.7,7.7,0,0,0-4.659,1.232c-3.182,1.751-6.3,3.627-7.923,4.6-.835.5-2.31,1.457-4.559,2.783-3.431,1.189-11.512,3.976-11.692,3.711-.106-.155.887-.7,3.025-1.947,1.9-1.107,2.605-1.5,4.161-2.336.454-.246.485-1.054-.431-1.352-.2-.066-.917-.01-1.327-.038a6.81,6.81,0,0,0-1.358-.076,11.274,11.274,0,0,0-4.261,1.61c-3.8,1.963-5.772,2.986-7.6,3.9-1.026.512-1.843.159-.533-.627,1.068-.639,4.517-2.75,6.158-3.7.931-.535.742-.905.417-1.114a1.2,1.2,0,0,0-1.078.151c-.925.549-3.178,1.9-4.262,2.55-1.3.782-2.244,1.307-3.73,2.079-1.672.869-2.282.945-2.509.812-.269-.156-.042-.6,1.129-1.4.725-.491,2.971-1.877,5.2-3.215.54-.324.663-1.092-.432-.849-4.568,1.014-6.953,1.541-9.735,1.986A21.363,21.363,0,0,1,26.13,5.675c1.808-2.949,3.551-3.848,4.989-4.27C31.859,1.189,33.5.9,34.1,1.67c.481.614,1.2-.166.755-.793-.292-.416-.869-.765-2.122-.859C29.4-.23,26.487,2.12,24.657,5.305A26.092,26.092,0,0,0,21.6,13.932c-7.784,1.445-15.363,2.1-18.855,4.157-3.667,2.154-3.523,5.765-.349,7.087s9.438,1.564,14.589-1.021c4.162-2.089,5.267-5.232,6.126-9.24,2.531-.512,4.385-.965,6.311-1.493l.614-.132-.633.364c-3.438,2.091-4.255,2.937-4.529,3.33A1.249,1.249,0,0,0,26,18.942,8.473,8.473,0,0,0,30,17.5c.04-.024.218-.132.26-.147a2.259,2.259,0,0,0-.217.166.779.779,0,0,0-.2.949c.272.491,1.176.75,3.279-.336,2.359-1.219,7.885-4.145,9.4-4.9a7.018,7.018,0,0,1,1.792-.722,4.509,4.509,0,0,1,1.12,0c.206,0,.433-.021.489-.018-.7.348-2.392,1.339-3.7,2.054a15.155,15.155,0,0,0-3.96,2.727c-.411.708.015,1.782.729,1.631,1.31-.276,4.913-1.363,7.3-2.21.086-.03,1.266-.387,1.356-.41-.067.039-.92.534-.985.577-3.738,2.383-8.921,5.54-13.178,8.159-.621.383.258,1.314.88.925,3.841-2.4,9.308-5.846,14.263-8.9H61.594a.567.567,0,0,0,0-1.133H50.479c.587-.36,1.165-.714,1.726-1.054,2.551-.888,4.469-1.436,7.34-2.495m-1.536-.981a74.623,74.623,0,0,1,9.07-5.007c2.216-.945,1.848.085.189,1.039a46.662,46.662,0,0,1-7.6,3.59c-.7.271-2.438.906-3.155,1.152.172-.1,1.325-.671,1.5-.773m-42,11.5c-4.06,2-11.176,2.245-13.6.36-1.02-.793-1.217-2.316.9-3.827C6.678,17,15,16.426,21.322,15.207c-.745,2.685-1.256,5.669-5.316,7.672" transform="translate(30 30)"/></g><g transform="matrix(1, 0, 0, 1, -15, 145)" filter="url(#c)"><path d="M195.355,20.06c3.369-.866,5.659-1.918,4.931-3.288-1.266-2.383-6.532-.21-10.324,2.824a8.215,8.215,0,0,0-1.018.952c-3.322.747-6.307,1.292-7.059,1.4-.958.137-1.286-.42-.494-1.228a35.089,35.089,0,0,0,4.386-.773c4.323-1.116,5.738-1.967,5.1-3.1-1.276-2.268-6.245-.625-10.213,2.551-.116.093-.225.185-.329.273-2.608.3-5.342.451-7.958.5,1.438-.881,2.762-1.688,3.936-2.4,4.546-.671,9.955-3.2,13.541-5.341,1.745-1.043,2.438-2.645.567-3-1.4-.265-3.08.243-6.914,2.488-1.366.8-4.424,2.628-8.165,4.9-.432.043-.858.072-1.265.072-.548,0-1.4.019-2.041.019a.421.421,0,0,0-.282.737,2.656,2.656,0,0,0,1.55.3h.182L169.8,20.191h-8.186l.042-.026c1.205-.725,2.578-1.478,4.022-2.278A39.616,39.616,0,0,0,179.39,12.54c1.979-1.211,2.3-2.566.566-3-1.47-.368-4.08.816-6.913,2.488-3.253,1.92-5.192,3.067-8.2,4.916-.317.028-.626.048-.913.048-1.058,0-3.5.03-5.263.049.194-.526-.064-.91-1-.91-1.587,0-3.19.244-3.259.837a.965.965,0,0,0,1.029,1.073h.4a11.91,11.91,0,0,1-1.156.848,28.623,28.623,0,0,1-5.818,2.966c-.645.21-.816-.237-.086-.907a13.825,13.825,0,0,1,2.685-1.918c.607-.261,1.212-.525,1.8-.786.6-.284.673-1.212-.013-1.094a8.858,8.858,0,0,0-3.413,1.567c-2.453.973-5.264,2-7.365,2.664-3.043.964-4.347.867-3.665-.244a18.836,18.836,0,0,1,5.1-4.366,52.738,52.738,0,0,1,8.956-4.478c3.174-1.171,5.227-1.728,6.853-1.728.623,0,1.042.162,1.158.406.206.442.963.271.963-.463,0-.388-.576-.989-2.1-.989a21.932,21.932,0,0,0-6.946,1.357,48.3,48.3,0,0,0-9.807,4.591,23.675,23.675,0,0,0-6.461,5.461,1.653,1.653,0,0,0,1.413,2.648c1.544,0,2.687-.353,5.72-1.431.9-.32,1.989-.734,3.175-1.2a2.569,2.569,0,0,0-.917,1.628c0,1.871,3.358.589,5.025-.2a36.1,36.1,0,0,0,6.32-3.8,6.524,6.524,0,0,0,.654-.531c1.712,0,3.688.01,5.116.011q-1.758,1.08-3.506,2.135h-2.547c-.731,0-2.091,1.149-1.36,1.149h2c-4.641,2.786-9.287,5.519-14.184,8.484-.626.38.525,1.244,1.146.858,5.266-3.275,9.985-6.223,15.135-9.342h8.2c-4.58,2.788-9.078,5.519-13.81,8.38-.625.378.676,1.259,1.3.873,5.2-3.21,10.554-6.493,15.066-9.253,2.52,0,5.667-.117,8.646-.384-1.085,1.556.058,2.281,1.268,2.281a59.738,59.738,0,0,0,7.86-1.465c-.219,1.053.871,1.567,1.973,1.465a37.535,37.535,0,0,0,8.37-1.967c.629-.3.354-.864-.869-.454a33.792,33.792,0,0,1-6,1.19c-.878.086-1.259-.113-1.219-.481a.82.82,0,0,1,.1-.3c1.984-.471,3.748-.908,4.75-1.166m-25.382-4.63a63.888,63.888,0,0,1,7.769-4.253c1.928-.795,2.292-.377.288.872a40.6,40.6,0,0,1-9.218,4.069q.581-.339,1.161-.688m10.769-.358a75.006,75.006,0,0,1,7.437-4.034c1.691-.737,2.455-.445.414.84a39.273,39.273,0,0,1-9.5,4.2c.664-.4,1.22-.742,1.652-1m5.129,2.682a6.133,6.133,0,0,1,2.852-.907c.755.08,1.262.676-1.379,1.473a33.863,33.863,0,0,1-3.985.919c.859-.563,1.8-1.121,2.512-1.485m7.719,1.02c1.937-1.107,3.466-1.889,4.487-1.889,1.133,0,.919.737-1.115,1.474-1.374.5-3.121,1-4.939,1.456a15.731,15.731,0,0,1,1.567-1.041" transform="translate(-37.42 25.36)"/></g></g></svg>