<svg xmlns="http://www.w3.org/2000/svg" width="282.533" height="30.3" viewBox="0 0 282.533 30.3"><path d="M4.52,0H-.16L5.8-28H18.4l-.88,4.04H9.6ZM24.44.4a7.805,7.805,0,0,1-5.2-1.62,5.569,5.569,0,0,1-1.92-4.5,10.133,10.133,0,0,1,.24-2.12l3-13.88Q22-28.4,28.6-28.4a7.856,7.856,0,0,1,5.18,1.58,5.524,5.524,0,0,1,1.9,4.5,10.3,10.3,0,0,1-.24,2.16L32.48-6.24Q31.04.4,24.44.4Zm.24-4.04q2.6,0,3.2-2.92l3.04-14.28a3.181,3.181,0,0,0,.16-1.08q0-2.44-2.76-2.44-2.6,0-3.2,2.92L22.08-7.16a7.22,7.22,0,0,0-.12,1.08Q21.96-3.64,24.68-3.64ZM40.52,0H35.84L41.8-28h6.72q3.68,0,5.34,2.06t.9,5.78l-.44,1.92a9.016,9.016,0,0,1-2.66,5.3,8.541,8.541,0,0,1-5.58,1.58H42.92ZM45.6-23.96l-1.84,8.6h2.8a2.913,2.913,0,0,0,2.14-.7,4.826,4.826,0,0,0,1.06-2.42l.44-2.16a3.048,3.048,0,0,0-.32-2.48,2.5,2.5,0,0,0-2.12-.84ZM57.44,0H52.8a15.355,15.355,0,0,0,1.36-3.8l.88-4.16a10.262,10.262,0,0,1,1.72-4.14,5.672,5.672,0,0,1,3.2-1.94v-.08a3.817,3.817,0,0,1-2.56-3.96,8.381,8.381,0,0,1,.24-1.96l.24-1.04a9.3,9.3,0,0,1,2.7-5.32A8.4,8.4,0,0,1,66.12-28h7.8L68,0H63.44l2.48-11.84H64.04a4.42,4.42,0,0,0-3,.94,5.349,5.349,0,0,0-1.52,3.02l-.92,4.4A12.042,12.042,0,0,1,57.44,0Zm7.12-15.88H66.8l1.72-8.08H65.68a3.03,3.03,0,0,0-2.18.68,4.69,4.69,0,0,0-1.06,2.4l-.4,1.84A5.409,5.409,0,0,0,61.92-18Q61.92-15.88,64.56-15.88ZM87.6-16.8,90-28h4.64L88.68,0H84.04l2.4-11.2a6.694,6.694,0,0,1-4.2,1.32q-5.68,0-5.68-5a10.8,10.8,0,0,1,.28-2.28L79.12-28h4.6L81.56-17.48a3.181,3.181,0,0,0-.16,1.08q0,2.4,2.72,2.4A3.463,3.463,0,0,0,87.6-16.8ZM99.8-9.28,110.16-28h5.04L109.24,0h-4.12L109-18.48,98.76,0h-5l5.96-28h4.12ZM127.92,0H114.44l5.96-28h13.48L133-23.96h-8.8l-1.6,7.52h7.04l-.84,4.04h-7.04l-1.8,8.36h8.8ZM144.8,0h-4.68l5.96-28h4.68l-2.48,11.56h5.84L156.6-28h4.64L155.28,0H150.6l2.64-12.4h-5.8Zm14.36,0,11.32-28h6.16l-.56,28H171.6l.24-5.44h-6.16L163.6,0Zm13.4-23.28L167.2-9.4H172ZM184.68,0H180l5.96-28h15.16L195.16,0h-4.68l5.12-23.96h-5.84ZM206.4-9.28,216.76-28h5.04L215.84,0h-4.12l3.88-18.48L205.36,0h-5l5.96-28h4.12ZM229.76,0h-4.64l5.08-23.96h-5.28l.84-4.04H241l-.84,4.04h-5.32ZM256.2-28h4.92l-8.44,10.64L255.16,0H250.6l-1.8-12.8-3.4,4.08L243.56,0H239l5.96-28h4.56l-2.56,12Zm8.92,18.72L275.48-28h5.04L274.56,0h-4.12l3.88-18.48L264.08,0h-5l5.96-28h4.12Z" transform="translate(1.086 29.15)" fill="none" stroke="#121211" stroke-width="1.5"/></svg>